<svg width="243" height="243" viewBox="0 0 243 243" fill="none" xmlns="http://www.w3.org/2000/svg">
<g clip-path="url(#clip0_628_318)">
<rect width="243" height="243" rx="20" fill="white"/>
<g filter="url(#filter0_f_628_318)">
<path d="M200.118 196.153C193.479 175.447 186.607 157.739 178.964 142.414L179.263 194.663C153.372 115.182 123.757 87.4619 48.1722 63.5724L101.295 63.8749C85.6863 56.0567 67.7004 49.2523 46.6828 42.7176H200.118V196.153Z" fill="black"/>
</g>
<path d="M73.2498 166.408C75.0219 166.408 76.6212 166.787 78.0476 167.543C79.4741 168.299 80.5983 169.391 81.4197 170.817C82.241 172.222 82.652 173.854 82.6521 175.713C82.6521 177.572 82.2304 179.215 81.3875 180.642C80.5661 182.047 79.4313 183.127 77.9832 183.884C76.5566 184.64 74.9567 185.019 73.1843 185.019C71.4122 185.019 69.8129 184.64 68.3865 183.884C66.9816 183.127 65.868 182.046 65.0466 180.642C64.2469 179.237 63.8474 177.593 63.8474 175.713C63.8475 173.854 64.2576 172.222 65.0789 170.817C65.9002 169.391 67.0244 168.299 68.4509 167.543C69.8775 166.786 71.4774 166.408 73.2498 166.408ZM116.627 166.408C118.399 166.408 119.998 166.787 121.425 167.543C122.851 168.299 123.975 169.391 124.797 170.817C125.618 172.222 126.029 173.854 126.029 175.713C126.029 177.572 125.607 179.215 124.764 180.642C123.943 182.047 122.808 183.127 121.36 183.884C119.934 184.64 118.334 185.019 116.561 185.019C114.789 185.019 113.19 184.64 111.763 183.884C110.359 183.127 109.245 182.046 108.424 180.642C107.624 179.237 107.224 177.593 107.224 175.713C107.224 173.854 107.635 172.222 108.456 170.817C109.277 169.391 110.401 168.299 111.828 167.543C113.254 166.786 114.854 166.408 116.627 166.408ZM54.1257 166.474C56.244 166.474 57.9297 167.166 59.1833 168.549C60.4586 169.911 61.0964 171.791 61.0964 174.19V184.76H55.5847V174.936C55.5847 173.725 55.2711 172.785 54.6443 172.115C54.0175 171.445 53.1749 171.11 52.116 171.11C51.0568 171.11 50.2135 171.445 49.5867 172.115C48.9599 172.785 48.6463 173.725 48.6462 174.936V184.76H43.1023V166.668H48.6462V169.067C49.2082 168.268 49.9647 167.64 50.9158 167.187C51.8668 166.711 52.9369 166.474 54.1257 166.474ZM92.0125 166.668H95.6433V171.272H92.0125V178.534C92.0125 179.074 92.1418 179.464 92.4011 179.702C92.6604 179.94 93.093 180.059 93.698 180.059H95.6765V184.76H92.8552C90.8452 184.76 89.278 184.273 88.1541 183.301C87.0301 182.307 86.4685 180.696 86.4685 178.47V171.272H84.2634V166.668H86.4685V162.259H92.0125V166.668ZM104.308 184.76H98.7644V174.372C100.902 175.209 102.107 175.223 104.308 174.372V184.76ZM139.994 166.474C142.112 166.474 143.798 167.166 145.052 168.549C146.327 169.911 146.965 171.791 146.965 174.19V184.76H141.453V174.936C141.453 173.725 141.139 172.785 140.512 172.115C139.886 171.445 139.042 171.11 137.983 171.11C136.924 171.11 136.082 171.445 135.455 172.115C134.828 172.785 134.514 173.725 134.514 174.936V184.76H128.97V166.668H134.514V169.067C135.076 168.268 135.833 167.64 136.784 167.187C137.735 166.711 138.805 166.474 139.994 166.474ZM73.2498 171.207C72.169 171.207 71.2716 171.596 70.5583 172.374C69.8452 173.13 69.4881 174.243 69.488 175.713C69.488 177.161 69.8345 178.275 70.5261 179.053C71.2394 179.831 72.1253 180.22 73.1843 180.22C74.2434 180.22 75.1408 179.831 75.8757 179.053C76.6321 178.275 77.0105 177.161 77.0105 175.713C77.0104 174.265 76.6427 173.152 75.908 172.374C75.1948 171.596 74.3087 171.207 73.2498 171.207ZM116.627 171.207C115.546 171.207 114.649 171.596 113.935 172.374C113.222 173.13 112.865 174.243 112.865 175.713C112.865 177.161 113.211 178.275 113.903 179.053C114.616 179.831 115.502 180.22 116.561 180.22C117.62 180.22 118.518 179.831 119.253 179.053C120.009 178.275 120.387 177.161 120.387 175.713C120.387 174.265 120.02 173.152 119.285 172.374C118.572 171.596 117.686 171.207 116.627 171.207ZM101.552 166.493C102.504 166.493 103.282 166.785 103.887 167.368C104.514 167.93 104.827 168.644 104.827 169.509C104.827 170.352 104.514 171.065 103.887 171.648C103.282 172.21 102.504 172.491 101.552 172.491C100.58 172.491 99.7799 172.21 99.1531 171.648C98.548 171.065 98.2459 170.352 98.2458 169.509C98.2458 168.644 98.5479 167.93 99.1531 167.368C99.7799 166.785 100.58 166.493 101.552 166.493ZM49.9753 141.149C51.2506 141.149 52.3641 141.409 53.3152 141.928C54.2877 142.446 55.0337 143.127 55.5525 143.97V141.409H61.0964V159.5H55.5525V156.938C55.0121 157.781 54.2556 158.463 53.283 158.981C52.3319 159.5 51.2184 159.76 49.9431 159.76C48.4734 159.76 47.133 159.381 45.9226 158.625C44.7124 157.847 43.7511 156.755 43.0378 155.351C42.3462 153.924 41.9998 152.281 41.9998 150.422C41.9998 148.563 42.3462 146.931 43.0378 145.526C43.7511 144.122 44.7124 143.041 45.9226 142.284C47.1329 141.528 48.4841 141.149 49.9753 141.149ZM72.0789 141.149C74.3482 141.149 76.1317 141.711 77.4285 142.835C78.7469 143.959 79.5035 145.451 79.698 147.31H74.575C74.4885 146.683 74.2075 146.186 73.7322 145.818C73.2784 145.451 72.673 145.267 71.9167 145.267C71.2683 145.267 70.7704 145.397 70.4246 145.656C70.0789 145.894 69.906 146.229 69.906 146.661C69.906 147.18 70.1763 147.569 70.7166 147.828C71.2785 148.087 72.1432 148.347 73.3103 148.606C74.6502 148.952 75.7418 149.298 76.5847 149.644C77.4276 149.968 78.163 150.508 78.7898 151.265C79.4382 152 79.7731 152.994 79.7947 154.248C79.7946 155.307 79.4924 156.258 78.8875 157.101C78.3039 157.922 77.4497 158.57 76.3259 159.046C75.2236 159.521 73.9373 159.76 72.4675 159.76C70.8897 159.76 69.4847 159.49 68.2527 158.949C67.0207 158.409 66.048 157.674 65.3347 156.744C64.6216 155.793 64.222 154.734 64.1355 153.567H69.614C69.6789 154.194 69.9713 154.702 70.49 155.091C71.0087 155.48 71.6466 155.675 72.4031 155.675C73.0944 155.675 73.6236 155.544 73.991 155.285C74.3799 155.004 74.5748 154.648 74.575 154.216C74.575 153.697 74.3046 153.319 73.7644 153.081C73.2241 152.822 72.3488 152.54 71.1384 152.237C69.8417 151.935 68.7608 151.622 67.8962 151.298C67.0317 150.952 66.2857 150.422 65.6589 149.709C65.0322 148.974 64.7186 147.991 64.7185 146.759C64.7185 145.721 64.9993 144.78 65.5613 143.938C66.1449 143.073 66.9883 142.393 68.0906 141.896C69.2145 141.398 70.5442 141.149 72.0789 141.149ZM118.526 141.149C120.298 141.149 121.898 141.528 123.324 142.284C124.75 143.041 125.875 144.132 126.696 145.559C127.517 146.963 127.928 148.595 127.928 150.454C127.928 152.313 127.507 153.956 126.664 155.383C125.842 156.788 124.708 157.869 123.26 158.625C121.833 159.381 120.233 159.76 118.461 159.76C116.689 159.76 115.089 159.381 113.663 158.625C112.258 157.868 111.144 156.788 110.323 155.383C109.523 153.978 109.124 152.335 109.124 150.454C109.124 148.595 109.534 146.963 110.355 145.559C111.177 144.132 112.301 143.041 113.727 142.284C115.154 141.528 116.754 141.149 118.526 141.149ZM89.6062 141.409H93.2371V146.014H89.6062V153.275C89.6062 153.816 89.7355 154.206 89.9949 154.443C90.2542 154.681 90.6868 154.8 91.2917 154.8H93.2703V159.501H90.449C88.4389 159.501 86.8717 159.015 85.7478 158.042C84.6239 157.048 84.0623 155.437 84.0623 153.211V146.014H81.8572V141.409H84.0623V137H89.6062V141.409ZM107.576 147.082H106.052C104.669 147.082 103.631 147.385 102.939 147.99C102.248 148.574 101.902 149.611 101.902 151.103V159.5H96.3582V141.408H101.902V144.424C102.551 143.43 103.361 142.651 104.334 142.089C105.306 141.505 106.387 141.214 107.576 141.214V147.082ZM118.526 145.948C117.445 145.948 116.548 146.337 115.835 147.115C115.122 147.872 114.765 148.985 114.765 150.454C114.765 151.902 115.111 153.016 115.802 153.794C116.516 154.572 117.402 154.961 118.461 154.961C119.52 154.961 120.417 154.572 121.152 153.794C121.909 153.016 122.287 151.902 122.287 150.454C122.287 149.006 121.919 147.893 121.184 147.115C120.471 146.337 119.585 145.948 118.526 145.948ZM51.5964 145.98C50.4943 145.981 49.5541 146.38 48.7761 147.18C48.0197 147.958 47.6414 149.039 47.6414 150.422C47.6414 151.805 48.0196 152.908 48.7761 153.729C49.5541 154.529 50.4944 154.929 51.5964 154.929C52.6988 154.929 53.629 154.529 54.3855 153.729C55.1636 152.93 55.5525 151.837 55.5525 150.454C55.5524 149.071 55.1635 147.979 54.3855 147.18C53.629 146.38 52.6988 145.98 51.5964 145.98Z" fill="black"/>
</g>
<defs>
<filter id="filter0_f_628_318" x="36.6829" y="32.7178" width="173.435" height="173.436" filterUnits="userSpaceOnUse" color-interpolation-filters="sRGB">
<feFlood flood-opacity="0" result="BackgroundImageFix"/>
<feBlend mode="normal" in="SourceGraphic" in2="BackgroundImageFix" result="shape"/>
<feGaussianBlur stdDeviation="5" result="effect1_foregroundBlur_628_318"/>
</filter>
<clipPath id="clip0_628_318">
<rect width="243" height="243" rx="20" fill="white"/>
</clipPath>
</defs>
</svg>
